<svg id="Layer_1" data-name="Layer 1" xmlns="http://www.w3.org/2000/svg" viewBox="0 0 129.27 150.78"><defs><style>.cls-1{fill:#005daa;stroke:#fff;stroke-width:2px;}.cls-2{fill:#fff;}</style></defs><title>logo</title><path class="cls-1" d="M149.47,20.66l-.35-1-1.06-.15c-20.92-2.91-45.83-3.18-54.6-3.18l-3.23,0H90l-3.23,0c-8.77,0-33.68.27-54.59,3.18l-1.06.15-.35,1c0,.13-4.3,12.6-4.3,31.9C26.49,74.4,32,105,55.21,136.14c0,0,5.31,7,12,14.08A91.38,91.38,0,0,0,78,160.07c3.67,2.73,7.22,4.75,10.7,4.92l1.1,0v0h.69v0l1.11,0c3.48-.17,7-2.19,10.7-4.93,10.93-8.24,22.71-23.86,22.77-23.92C148.29,105,153.78,74.4,153.77,52.57,153.77,33.27,149.52,20.79,149.47,20.66Z" transform="translate(-25.5 -15.32)"/><path class="cls-2" d="M78,133.86v-1.75h3.2v7.95H79.18v-6.2Z" transform="translate(-25.5 -15.32)"/><path class="cls-2" d="M88.32,134.06a1.88,1.88,0,0,1-1.25,1.8v0A2.14,2.14,0,0,1,88.65,138c0,1.64-1.67,2.4-3,2.4s-3-.76-3-2.4a2.14,2.14,0,0,1,1.58-2.09v0a1.88,1.88,0,0,1-1.25-1.8c0-1.52,1.35-2.27,2.71-2.27S88.32,132.54,88.32,134.06Zm-3.66,3.65a.95.95,0,1,0,1.9,0,.95.95,0,1,0-1.9,0Zm.07-3.58a.87.87,0,1,0,.87-.9A.88.88,0,0,0,84.73,134.12Z" transform="translate(-25.5 -15.32)"/><path class="cls-2" d="M92.15,133.86l-.14.91.65-.05a2.67,2.67,0,0,1,2.81,2.84,2.77,2.77,0,0,1-1,2.15,3.77,3.77,0,0,1-2.32.66,4.79,4.79,0,0,1-2.59-.72l.31-2a3.37,3.37,0,0,0,2.21.92,1.22,1.22,0,0,0,1.27-1.17c0-1-.92-1.36-1.74-1.36a3.57,3.57,0,0,0-1.52.33l.7-4.31H94.9v1.75Z" transform="translate(-25.5 -15.32)"/><path class="cls-2" d="M102.23,138.31v1.75H95.84l3.25-3.53a3.09,3.09,0,0,0,.91-1.95,1,1,0,0,0-.91-1,.87.87,0,0,0-.86,1,1.86,1.86,0,0,0,0,.34H96a2.94,2.94,0,0,1,3.1-3.06,2.87,2.87,0,0,1,3.07,2.83,3.15,3.15,0,0,1-1.29,2.54l-1.23,1.15Z" transform="translate(-25.5 -15.32)"/><path class="cls-2" d="M89,66.25l-2.21-.63c-1.5-.46-3.85-1.18-3.85-3s2.12-2.66,3.71-2.66A9.35,9.35,0,0,1,92.4,62l3.45-6.43A23.6,23.6,0,0,0,85.41,53c-6.67,0-11.49,4.23-11.49,10.69,0,6.17,3.58,7.52,9,9,1.86.51,5.26,1.31,5.26,3.63S86,79.52,84,79.52a12.13,12.13,0,0,1-7.69-3.3L72.6,82.9a21.21,21.21,0,0,0,11.71,3.63,15.06,15.06,0,0,0,9.46-3c2.65-2.16,3.45-5.41,3.45-8.58C97.21,69.8,93.63,67.56,89,66.25Z" transform="translate(-25.5 -15.32)"/><path class="cls-2" d="M102.34,58.13a16.31,16.31,0,0,0-4.9,11.67,15.27,15.27,0,0,0,5.35,12,19,19,0,0,0,12.51,4.69,25.52,25.52,0,0,0,7.65-1.48v-.37l-3.8-6.92a9.91,9.91,0,0,1-3.67.74c-5.39,0-9-3.63-9-8.66A8.58,8.58,0,0,1,115.33,61a10.41,10.41,0,0,1,3.74.7l3.86-7v-.09A21.12,21.12,0,0,0,115,53,18.46,18.46,0,0,0,102.34,58.13Z" transform="translate(-25.5 -15.32)"/><path class="cls-2" d="M63.85,85.69c-.32,0,9.21-.07,9.21-.07L60.54,53.88l-9.41,0L43.87,71.69l9-.13,2.9-8.47,3,9,5.13,1.22.15.66s-15.66-2.25-26.74.75l.05.25s17.21-2.5,27.08,1.09l.1.49S50.78,74,37.88,77.42l.08.38A65.4,65.4,0,0,1,65,78.63l0,.12.09.46s-10.27-2.53-26.73.87l.08.37s1-.13,2-.17l-2.22,5.41h9.19l2.3-5.54s6.86-1,12.07.19Z" transform="translate(-25.5 -15.32)"/><path class="cls-2" d="M132.57,60.84v5.33h9.77v7h-9.77v5.49h10.3v7h-19V53.82h19v7Z" transform="translate(-25.5 -15.32)"/></svg>