<svg xmlns="http://www.w3.org/2000/svg" viewBox="0 0 254.89 81.06">
	<defs>
		<style>
			g {
				fill: #fff;
			}
		</style>
	</defs>
	<title>ASCE Logo</title>
	<g>
		<path title="A" d="M64,79c-.78.1,22.23-.17,22.23-.17L56.05,2.2,33.33,2.12,15.78,45.22l21.83-.31,7-20.46,7.22,21.74,12.4,2.94.36,1.6S26.78,45.28,0,52.53l.12.6s41.57-6,65.41,2.62l.25,1.18S32.47,50.82,1.32,59c.17.8.19.91.19.91s32.25-6.82,65.41,2l.06.28.22,1.1s-24.79-6.1-64.55,2.11l.18.9S5.2,66,7.6,66L2.23,79h22.2L30,65.65s16.56-2.35,29.16.45Z"/>
		<path title="S" d="M124.76,32.06l-5.34-1.53c-3.63-1.13-9.28-2.86-9.28-7.35,0-4.29,5.12-6.44,9-6.44A22.6,22.6,0,0,1,133,21.85L141.3,6.33A57,57,0,0,0,116.12,0C100,0,88.36,10.21,88.36,25.83c0,14.9,8.65,18.17,21.78,21.75,4.48,1.22,12.7,3.16,12.7,8.77,0,5.42-5.23,7.76-10.14,7.76-7.15,0-13.34-3.57-18.57-8l-9,16.13a51.25,51.25,0,0,0,28.29,8.78c8.11,0,16.54-2.14,22.84-7.25s8.32-13.07,8.32-20.72C144.61,40.63,136,35.22,124.76,32.06Z"/>
		<path title="C" d="M157,12.45a39.42,39.42,0,0,0-11.85,28.18c0,11.44,4.06,21.44,12.92,29.1a45.93,45.93,0,0,0,30.2,11.33c6.52,0,11.53-1.53,18.47-3.57v-.9l-9.18-16.71a23.86,23.86,0,0,1-8.86,1.78c-13,0-21.77-8.78-21.77-20.93,0-11.94,8.64-21.33,21.45-21.33a25.22,25.22,0,0,1,9,1.69l9.33-17V3.88A51,51,0,0,0,187.62,0,44.64,44.64,0,0,0,157,12.45Z"/>
		<path title="E" d="M230,19V31.85H253.6V48.8H230V62.07h24.87V79H209.1V2h45.79V19Z"/>
	</g>
</svg>
